<svg width="18" height="17" viewBox="0 0 18 17" fill="none" xmlns="http://www.w3.org/2000/svg">
<path d="M8.56664 1.91581C8.60189 1.82983 8.66191 1.75629 8.73907 1.70452C8.81624 1.65276 8.90706 1.62512 8.99997 1.62512C9.09289 1.62512 9.18371 1.65276 9.26087 1.70452C9.33804 1.75629 9.39806 1.82983 9.43331 1.91581L11.2041 6.17497C11.2373 6.25467 11.2918 6.32368 11.3616 6.3744C11.4315 6.42513 11.5139 6.4556 11.6 6.46248L16.1983 6.83081C16.6141 6.86414 16.7825 7.38331 16.4658 7.65414L12.9625 10.6558C12.897 10.7118 12.8482 10.7847 12.8215 10.8666C12.7947 10.9485 12.791 11.0361 12.8108 11.12L13.8816 15.6075C13.9032 15.6975 13.8975 15.7919 13.8654 15.8787C13.8333 15.9656 13.7762 16.0409 13.7013 16.0953C13.6264 16.1497 13.5371 16.1807 13.4446 16.1843C13.3521 16.188 13.2606 16.1641 13.1816 16.1158L9.24414 13.7116C9.17062 13.6667 9.08613 13.643 8.99997 13.643C8.91382 13.643 8.82933 13.6667 8.75581 13.7116L4.81831 16.1166C4.73935 16.165 4.64785 16.1888 4.55535 16.1852C4.46286 16.1815 4.37352 16.1505 4.29861 16.0962C4.22371 16.0418 4.16661 15.9664 4.13452 15.8796C4.10243 15.7927 4.09678 15.6983 4.11831 15.6083L5.18914 11.12C5.209 11.0361 5.20535 10.9485 5.17859 10.8666C5.15183 10.7847 5.103 10.7117 5.03747 10.6558L1.53414 7.65414C1.46359 7.594 1.41248 7.51428 1.38727 7.42507C1.36207 7.33586 1.3639 7.24118 1.39255 7.15302C1.42119 7.06485 1.47536 6.98717 1.54818 6.92981C1.62101 6.87245 1.70922 6.838 1.80164 6.83081L6.39997 6.46248C6.48601 6.4556 6.56849 6.42513 6.63833 6.3744C6.70817 6.32368 6.76266 6.25467 6.79581 6.17497L8.56664 1.91581Z" stroke="#F3F4F6" stroke-width="1.5" stroke-linecap="round" stroke-linejoin="round"/>
</svg>
